M48
;GenerationSoftware,Autodesk,EAGLE,9.6.2*%
;CreationDate,2025-06-19T07:16:52Z*%
FMAT,2
ICI,OFF
METRIC,TZ,000.000
T7C0.300
T6C0.350
T5C0.500
T4C1.200
T3C2.100
T2C2.200
T1C4.100
%
G90
M71
T1
X32100Y49000
X24900Y49000
X48600Y49000
X41400Y49000
X65100Y49000
X57900Y49000
T2
X18500Y38000
X73500Y27000
X18500Y15000
T3
X65800Y1500
X65800Y6300
X70500Y1500
X70500Y6300
T4
X7430Y36100
X2350Y39910
X7430Y39910
X2350Y43720
X7430Y43720
X2350Y47530
X7430Y47530
X2350Y51340
X7430Y51340
X7430Y24670
X2350Y28480
X2350Y1810
X7430Y1810
X7430Y28480
X2350Y32290
X7430Y32290
X2350Y36100
X7430Y5620
X2350Y5620
X2350Y9430
X7430Y9430
X2350Y13240
X7430Y13240
X2350Y17050
X7430Y17050
X2350Y20860
X7430Y20860
X2350Y24670
T5
X27250Y52000
X66950Y41200
X65950Y41200
X64950Y41200
X63950Y41200
X63950Y40200
X64950Y40200
X65950Y40200
X66950Y40200
X67950Y40200
X68950Y40200
X69950Y40200
X69950Y39200
X68950Y39200
X67950Y39200
X66950Y39200
X65950Y39200
X64950Y39200
X63950Y39200
X69950Y38200
X68950Y38200
X67950Y38200
X66950Y38200
X20300Y19600
X20900Y31200
X65950Y38200
X64950Y38200
X63950Y38200
X45250Y42200
X46250Y42200
X47250Y42200
X48250Y42200
X49250Y42200
X50250Y42200
X51150Y42200
X27100Y37300
X50250Y41200
X49250Y41200
X48250Y41200
X47250Y41200
X20300Y26800
X38750Y53000
X39750Y53000
X40750Y53000
X41750Y53000
X42750Y53000
X43750Y53000
X38750Y52000
X39750Y52000
X40750Y52000
X41750Y52000
X42750Y52000
X43750Y52000
X38750Y51000
X39750Y51000
X43750Y51000
X43750Y50000
X38750Y50000
X38750Y49000
X38750Y48000
X38750Y47000
X38750Y46000
X39750Y46000
X39750Y47000
X40750Y46000
X41750Y46000
X42750Y46000
X43750Y46000
X43750Y47000
X43750Y48000
X54500Y53000
X55500Y53000
X56500Y53000
X57500Y53000
X58500Y53000
X59500Y53000
X54500Y52000
X55500Y52000
X56500Y52000
X57500Y52000
X58500Y52000
X59500Y52000
X54500Y51000
X55500Y51000
X59500Y51000
X54500Y50000
X54500Y49000
X54500Y48000
X54500Y47000
X54500Y46000
X55500Y46000
X55500Y47000
X56500Y46000
X57500Y46000
X58500Y46000
X59500Y46000
X59500Y47000
X60500Y53000
X60500Y52000
X60500Y51000
X60500Y50000
X60500Y49000
X60500Y48000
X60500Y47000
X60500Y46000
X55500Y48000
X55500Y50000
X22250Y53000
X23250Y53000
X24250Y53000
X25250Y53000
X26250Y53000
X27250Y53000
X22250Y52000
X23250Y52000
X24250Y52000
X25250Y52000
X26250Y52000
X77000Y47000
X22250Y51000
X23250Y51000
X27250Y51000
X27250Y50000
X22250Y50000
X22250Y49000
X22250Y48000
X22250Y47000
X23250Y46000
X23250Y47000
X24250Y46000
X25250Y46000
X26250Y46000
X27250Y46000
X27250Y47000
X27250Y48000
X46250Y41200
X45250Y41200
X45250Y40200
X46250Y40200
X47250Y40200
X48250Y40200
X49250Y40200
X50250Y40200
X51150Y40200
X51150Y39200
X50250Y39200
X49250Y39200
X48250Y39200
X47250Y39200
X46250Y39200
X45250Y39200
X34900Y13850
X35800Y13850
X34900Y12850
X35800Y12850
X35800Y11850
X36700Y11850
X36700Y12850
X36700Y13850
X35100Y6450
X36100Y6450
X36100Y5550
X35100Y5550
X32850Y41300
X32850Y40100
X32850Y38900
X51150Y38200
X50250Y38200
X49250Y38200
X48250Y38200
X47250Y38200
X46250Y38200
X45250Y38200
X46350Y35500
X45350Y35500
X47350Y35500
X48350Y35500
X49350Y35500
X49850Y34500
X48850Y34500
X47850Y34500
X46850Y34500
X45850Y34500
X47350Y33500
X48350Y33500
X49350Y33500
X49850Y32500
X50850Y32500
X48850Y32500
X47850Y32500
X47350Y31500
X48350Y31500
X49350Y31500
X50350Y31500
X50850Y30500
X49850Y30500
X48850Y30500
X47850Y30500
X47350Y29500
X48350Y29500
X49350Y29500
X50350Y29500
X50850Y28500
X49850Y28500
X48850Y28500
X47850Y28500
X51150Y41200
X71000Y53000
X72500Y53000
X74000Y53000
X75500Y53000
X77000Y53000
X71000Y51500
X72500Y51500
X74000Y51500
X75500Y51500
X77000Y51500
X71000Y50000
X72500Y50000
X74000Y50000
X75500Y50000
X77000Y50000
X71000Y48500
X72500Y48500
X74000Y48500
X75500Y48500
X77000Y48500
X71000Y47000
X72500Y47000
X74000Y47000
X75500Y47000
X71000Y45500
X72500Y45500
X74000Y45500
X75500Y45500
X77000Y45500
X71000Y44000
X72500Y44000
X74000Y44000
X75500Y44000
X77000Y44000
X74000Y42500
X75500Y42500
X77000Y42500
X74000Y41000
X75500Y41000
X77000Y41000
X74000Y39500
X75500Y39500
X77000Y39500
X74000Y38000
X75500Y38000
X77000Y38000
X74000Y36500
X75500Y36500
X77000Y36500
X74000Y35000
X75500Y35000
X77000Y35000
X74000Y33500
X75500Y33500
X77000Y33500
X75500Y32000
X77000Y32000
X77000Y30500
X38750Y45000
X39750Y45000
X40750Y45000
X41750Y45000
X42750Y45000
X43750Y45000
X54500Y45000
X54500Y44000
X55500Y44000
X55500Y45000
X56500Y45000
X56500Y44000
X57500Y44000
X57500Y45000
X58500Y45000
X58500Y44000
X59500Y44000
X59500Y45000
X60500Y45000
X60500Y44000
X72500Y42500
X71000Y42500
X71000Y41000
X72500Y41000
X72500Y39500
X71000Y39500
X71000Y38000
X72500Y38000
X72500Y36500
X71000Y36500
X71000Y35000
X72500Y35000
X72500Y33500
X71000Y33500
X74000Y32000
X75500Y30500
X74000Y30500
X72500Y30500
X72500Y32000
X71000Y32000
X71000Y30500
X77000Y29000
X77000Y27500
X77000Y26000
X71100Y24000
X77000Y24500
X72500Y23000
X74000Y23000
X75500Y23000
X77000Y23000
X72500Y21500
X74000Y21500
X75500Y21500
X77000Y21500
X71000Y20000
X72500Y20000
X74000Y20000
X75500Y20000
X77000Y20000
X74000Y18500
X75500Y18500
X77000Y18500
X74000Y17000
X75500Y17000
X77000Y17000
X74000Y15500
X75500Y15500
X77000Y15500
X74000Y14000
X75500Y14000
X77000Y14000
X74000Y12500
X75500Y12500
X77000Y12500
X74000Y11000
X75500Y11000
X77000Y11000
X74000Y9500
X75500Y9500
X77000Y9500
X75500Y8000
X77000Y8000
X77000Y6500
X72500Y18500
X71000Y18500
X71000Y17000
X72500Y17000
X72500Y15500
X71000Y15500
X71000Y14000
X72500Y14000
X72500Y12500
X71000Y12500
X71000Y11000
X72500Y11000
X72500Y9500
X71000Y9500
X74000Y8000
X75500Y6500
X74000Y6500
X72500Y8000
X74000Y5000
X75500Y5000
X77000Y5000
X74000Y3500
X75500Y3500
X77000Y3500
X74000Y2000
X75500Y2000
X77000Y2000
X74000Y500
X75500Y500
X77000Y500
X74000Y-1000
X75500Y-1000
X77000Y-1000
X72500Y5000
X72500Y3500
X72500Y500
X72500Y-1000
X71000Y-1000
X29750Y46000
X30750Y46000
X31750Y46000
X32750Y46000
X33750Y46000
X34750Y46000
X35750Y46000
X36750Y46000
X29750Y47000
X34750Y47000
X35750Y47000
X36750Y47000
X29750Y48000
X29750Y50000
X29750Y51000
X29750Y52000
X29750Y53000
X30750Y53000
X31750Y53000
X32750Y53000
X30750Y52000
X33750Y53000
X34750Y53000
X35750Y53000
X36750Y53000
X36750Y52000
X35750Y52000
X34750Y52000
X33750Y52000
X35750Y51000
X36750Y51000
X36750Y50000
X35750Y50000
X35750Y49000
X36750Y49000
X36750Y48000
X35750Y48000
X31750Y52000
X34750Y51000
X32750Y52000
X29750Y45000
X30750Y45000
X31750Y45000
X32750Y45000
X33750Y45000
X34750Y45000
X35750Y45000
X36750Y45000
X34750Y48000
X34750Y50000
X33750Y51000
X33750Y47000
X64700Y22000
X64700Y21000
X64700Y20000
X64700Y19000
X64700Y18000
X64700Y17000
X63700Y17000
X63700Y18000
X63700Y19000
X63700Y20000
X63700Y21000
X63700Y22000
X62700Y21000
X62700Y20000
X62700Y19000
X62700Y18000
X62700Y17000
X61700Y17000
X61700Y18000
X61700Y19000
X61700Y20000
X62250Y46000
X63250Y46000
X64250Y46000
X65250Y46000
X66250Y46000
X67250Y46000
X68250Y46000
X69250Y46000
X69250Y47000
X68250Y47000
X67250Y47000
X68250Y48000
X69250Y48000
X69250Y49000
X68250Y49000
X68250Y50000
X69250Y50000
X69250Y51000
X68250Y51000
X68250Y52000
X69250Y52000
X69250Y53000
X68250Y53000
X67250Y53000
X66250Y53000
X65250Y53000
X64250Y53000
X63250Y53000
X62250Y53000
X62250Y52000
X63250Y52000
X64250Y52000
X65250Y52000
X66250Y52000
X67250Y52000
X67250Y51000
X62250Y51000
X62250Y50000
X62250Y49000
X62250Y48000
X62250Y47000
X63250Y47000
X63250Y51000
X63250Y44000
X64250Y44000
X65250Y44000
X66250Y44000
X67250Y44000
X62250Y45000
X63250Y45000
X64250Y45000
X65250Y45000
X66250Y45000
X67250Y45000
X69250Y45000
X62250Y44000
X45750Y46000
X46750Y46000
X47750Y46000
X48750Y46000
X49750Y46000
X50750Y46000
X51750Y46000
X52750Y46000
X45750Y47000
X46750Y47000
X50750Y47000
X51750Y47000
X52750Y47000
X45750Y48000
X45750Y49000
X45750Y50000
X45750Y51000
X45750Y52000
X45750Y53000
X46750Y53000
X47750Y53000
X48750Y53000
X46750Y52000
X49750Y53000
X50750Y53000
X51750Y53000
X52750Y53000
X52750Y52000
X51750Y52000
X50750Y52000
X49750Y52000
X51750Y51000
X52750Y51000
X52750Y50000
X51750Y50000
X51750Y49000
X52750Y49000
X52750Y48000
X51750Y48000
X47750Y52000
X50750Y51000
X48750Y52000
X46750Y51000
X45750Y45000
X46750Y45000
X47750Y45000
X48750Y45000
X51750Y45000
X52750Y45000
X45750Y44000
X46750Y44000
X47750Y44000
X48750Y44000
X51750Y44000
X52750Y44000
X52100Y11600
X53400Y11600
X52100Y10600
X53400Y10600
X52100Y9600
X53400Y9600
X52100Y8600
X53400Y8600
X4400Y14200
X4400Y13200
X4400Y12200
X5400Y12200
X5400Y13200
X5400Y14200
X9400Y14200
X9400Y13200
X9400Y12200
X10400Y12200
X10400Y13200
X10400Y14200
X11400Y14200
X11400Y13200
X11400Y12200
X37600Y10100
X38900Y10100
X37600Y9100
X38900Y9100
X37600Y8100
X38900Y8100
X37600Y7100
X38900Y7100
X4400Y6700
X4400Y5700
X4400Y4700
X5400Y4700
X5400Y5700
X5400Y6700
X9400Y6700
X9400Y5700
X9400Y4700
X10400Y4700
X10400Y5700
X10400Y6700
X11400Y6700
X11400Y5700
X11400Y4700
X28100Y33300
X27100Y33300
X26100Y33300
X26100Y34300
X28100Y34300
X27100Y34300
X27100Y35300
X26100Y35300
X26100Y36300
X27100Y36300
X28100Y36300
X28100Y35300
X26100Y32300
X26100Y37300
X28100Y37300
X28100Y38300
X27100Y38300
X26100Y38300
X26100Y39300
X27100Y39300
X27100Y40300
X26100Y40300
X26100Y41300
X28100Y39300
X28100Y40300
X27100Y41300
X27100Y16800
X28100Y16800
X26100Y16800
X22000Y8600
X22000Y7600
X28100Y17800
X27100Y17800
X28000Y5100
X4100Y44800
X4100Y43800
X4100Y42800
X5100Y42800
X5100Y43800
X5100Y44800
X9100Y44800
X9100Y43800
X9100Y42800
X10100Y42800
X10100Y43800
X10100Y44800
X11100Y44800
X11100Y43800
X11100Y42800
X63950Y42200
X64950Y42200
X65950Y42200
X66950Y42200
X67950Y42200
X68950Y42200
X69950Y42200
X69950Y41200
X68950Y41200
X67950Y41200
T6
X69300Y8300
X69400Y4100
X14400Y25500
T7
X70000Y13800
X18300Y19700
X18300Y25200
X18300Y30200
X15600Y22700
X15600Y21900
X15600Y21100
X15600Y32900
X15600Y32100
X15100Y28600
X16100Y28600
X71400Y22400
X14400Y52000
X18100Y51000
X18100Y50200
X31700Y7900
X35200Y7600
X23000Y35600
X24900Y37000
X21700Y21400
X23800Y26800
X33600Y31200
X36000Y31200
X31200Y31800
X67400Y22200
X70100Y16200
X67000Y27000
X22000Y42500
X25200Y44400
X27000Y20500
X32200Y20000
X31400Y20000
X31000Y13500
X35200Y25200
X29650Y25150
X30350Y25150
X31050Y25150
X31750Y25150
X31750Y24550
X31050Y24550
X30350Y24550
X29650Y24550
X29650Y23950
X30350Y23950
X31050Y23950
X31750Y23950
X31750Y23350
X31050Y23350
X30350Y23350
X29650Y23350
X31700Y8500
X31700Y9100
X31700Y9700
X31700Y10300
X46200Y7900
X46200Y8500
X46200Y9100
X46200Y9700
X46200Y10300
X60700Y7900
X60700Y8500
X60700Y9100
X60700Y9700
X60700Y10300
X31700Y13500
X31700Y12800
X31000Y12800
X31000Y12100
X31700Y12100
X31700Y11400
X31000Y11400
X41700Y10300
X41000Y10300
X41000Y9600
X41700Y9600
X41700Y8900
X41000Y8900
X41000Y8200
X41700Y8200
X41700Y7500
X41000Y7500
X59700Y11200
X59700Y11800
X60900Y12500
X60900Y13200
X60200Y13200
X55200Y11900
X56000Y11900
X56000Y11100
X55200Y11100
X55200Y10300
X58700Y35600
X52000Y42600
X44000Y43200
X56600Y43000
X57147Y40653
X40200Y39900
X44100Y42400
X50400Y43600
X58700Y41200
X54775Y36300
X38300Y28800
X38000Y23100
X25200Y29700
X24300Y20900
X20900Y45850
X35000Y23400
X50300Y26200
X28300Y29700
X58550Y19350
X16300Y10900
X18000Y4300
X13100Y32700
X21400Y41900
X13100Y27200
X13100Y21300
X24500Y37700
X20300Y42100
X14900Y37300
X22500Y38500
X20300Y32500
X30100Y6900
X22000Y6100
X44800Y9300
X49800Y12200
X30300Y9300
X36100Y9400
X44600Y6900
X68400Y43200
X62100Y38600
X19500Y2600
X26800Y29600
X54600Y39900
X65900Y9600
X43200Y38700
X51900Y32700
X43100Y35400
X42700Y41700
X40100Y36100
X38700Y40600
X38600Y43100
X58500Y20100
X59100Y6900
X18800Y3500
X44100Y7600
X24600Y18500
X64300Y14700
X66075Y10425
X42250Y23100
X33900Y22800
X33800Y34100
X33900Y20200
X42400Y18500
X27500Y22800
X35900Y15400
X28400Y21500
X26200Y23600
X41800Y19350
X34600Y22800
X43150Y23150
X27200Y26100
X37800Y43200
X20600Y48600
X38400Y35500
X52000Y33500
X14200Y49200
X68800Y24900
X29600Y7600
X28900Y6000
X59300Y9300
X64300Y12200
X58600Y7600
X61100Y28600
X56500Y34700
X28500Y43300
X36000Y36300
X18100Y22100
X13800Y20200
X12900Y24400
X17900Y27500
X17800Y32900
X12700Y31500
X18300Y46600
X15200Y45900
X50300Y25500
X11200Y49300
X50300Y14700
X20000Y46500
X26900Y42750
X21500Y35500
X15200Y36100
X21700Y40700
X15500Y48600
X71400Y21400
X14600Y12600
X16000Y5800
X17000Y46500
X19400Y46900
X13100Y47300
X11600Y48400
X36400Y35700
X41100Y40600
X41000Y43100
X39800Y43100
X35600Y42400
X33300Y35000
X33300Y36200
X33300Y37400
X52000Y34700
X52000Y35900
X52000Y37400
X52500Y40900
X54300Y43000
X53500Y42300
X58800Y42300
X57800Y43000
X60200Y41100
X55075Y35600
X21800Y425
X55200Y8700
X56000Y8700
X55200Y9500
X56000Y9500
X56000Y10300
X61700Y41700
M30