G04 EAGLE Gerber RS-274X export*
G75*
%MOMM*%
%FSLAX34Y34*%
%LPD*%
%INSolderpaste Bottom*%
%IPPOS*%
%AMOC8*
5,1,8,0,0,1.08239X$1,22.5*%
G01*
%ADD10R,0.750000X1.300000*%
%ADD11R,1.950000X1.700000*%
%ADD12R,1.950000X1.300000*%
%ADD13R,0.700000X1.300000*%
%ADD14C,0.075000*%
%ADD15R,1.170000X0.762000*%
%ADD16R,1.300000X0.750000*%
%ADD17R,1.700000X1.950000*%
%ADD18R,1.300000X1.950000*%
%ADD19R,1.300000X0.700000*%
%ADD20R,1.600000X2.700000*%
%ADD21R,2.700000X1.600000*%
%ADD22R,4.400000X1.900000*%
%ADD23R,3.200000X1.800000*%
%ADD24R,2.900000X5.400000*%
%ADD25R,0.700000X0.700000*%
%ADD26R,0.450000X0.300000*%
%ADD27R,0.700000X0.550000*%
%ADD28R,0.600000X0.700000*%
%ADD29R,0.700000X0.600000*%
%ADD30R,0.700000X0.400000*%
%ADD31R,0.400000X0.700000*%


D10*
X645950Y438250D03*
X658650Y438250D03*
X671350Y438250D03*
X684050Y438250D03*
D11*
X677750Y416500D03*
X652250Y416500D03*
D12*
X652250Y395500D03*
X677750Y395500D03*
D13*
X646000Y382500D03*
X658500Y382500D03*
X671500Y382500D03*
X684000Y382500D03*
D10*
X465950Y438250D03*
X478650Y438250D03*
X491350Y438250D03*
X504050Y438250D03*
D11*
X497750Y416500D03*
X472250Y416500D03*
D12*
X472250Y395500D03*
X497750Y395500D03*
D13*
X466000Y382500D03*
X478500Y382500D03*
X491500Y382500D03*
X504000Y382500D03*
D14*
X167625Y340125D02*
X167625Y337875D01*
X167625Y340125D02*
X175375Y340125D01*
X175375Y337875D01*
X167625Y337875D01*
X167625Y338587D02*
X175375Y338587D01*
X175375Y339299D02*
X167625Y339299D01*
X167625Y340011D02*
X175375Y340011D01*
X167625Y335125D02*
X167625Y332875D01*
X167625Y335125D02*
X175375Y335125D01*
X175375Y332875D01*
X167625Y332875D01*
X167625Y333587D02*
X175375Y333587D01*
X175375Y334299D02*
X167625Y334299D01*
X167625Y335011D02*
X175375Y335011D01*
X167625Y330125D02*
X167625Y327875D01*
X167625Y330125D02*
X175375Y330125D01*
X175375Y327875D01*
X167625Y327875D01*
X167625Y328587D02*
X175375Y328587D01*
X175375Y329299D02*
X167625Y329299D01*
X167625Y330011D02*
X175375Y330011D01*
X167625Y325125D02*
X167625Y322875D01*
X167625Y325125D02*
X175375Y325125D01*
X175375Y322875D01*
X167625Y322875D01*
X167625Y323587D02*
X175375Y323587D01*
X175375Y324299D02*
X167625Y324299D01*
X167625Y325011D02*
X175375Y325011D01*
X167625Y320125D02*
X167625Y317875D01*
X167625Y320125D02*
X175375Y320125D01*
X175375Y317875D01*
X167625Y317875D01*
X167625Y318587D02*
X175375Y318587D01*
X175375Y319299D02*
X167625Y319299D01*
X167625Y320011D02*
X175375Y320011D01*
X136625Y320125D02*
X136625Y317875D01*
X136625Y320125D02*
X144375Y320125D01*
X144375Y317875D01*
X136625Y317875D01*
X136625Y318587D02*
X144375Y318587D01*
X144375Y319299D02*
X136625Y319299D01*
X136625Y320011D02*
X144375Y320011D01*
X136625Y322875D02*
X136625Y325125D01*
X144375Y325125D01*
X144375Y322875D01*
X136625Y322875D01*
X136625Y323587D02*
X144375Y323587D01*
X144375Y324299D02*
X136625Y324299D01*
X136625Y325011D02*
X144375Y325011D01*
X136625Y327875D02*
X136625Y330125D01*
X144375Y330125D01*
X144375Y327875D01*
X136625Y327875D01*
X136625Y328587D02*
X144375Y328587D01*
X144375Y329299D02*
X136625Y329299D01*
X136625Y330011D02*
X144375Y330011D01*
X136625Y332875D02*
X136625Y335125D01*
X144375Y335125D01*
X144375Y332875D01*
X136625Y332875D01*
X136625Y333587D02*
X144375Y333587D01*
X144375Y334299D02*
X136625Y334299D01*
X136625Y335011D02*
X144375Y335011D01*
X136625Y337875D02*
X136625Y340125D01*
X144375Y340125D01*
X144375Y337875D01*
X136625Y337875D01*
X136625Y338587D02*
X144375Y338587D01*
X144375Y339299D02*
X136625Y339299D01*
X136625Y340011D02*
X144375Y340011D01*
D15*
X156000Y335350D03*
X156000Y322650D03*
D16*
X423250Y279050D03*
X423250Y266350D03*
X423250Y253650D03*
X423250Y240950D03*
D17*
X401500Y247250D03*
X401500Y272750D03*
D18*
X380500Y272750D03*
X380500Y247250D03*
D19*
X367500Y279000D03*
X367500Y266500D03*
X367500Y253500D03*
X367500Y241000D03*
D16*
X366750Y305950D03*
X366750Y318650D03*
X366750Y331350D03*
X366750Y344050D03*
D17*
X388500Y337750D03*
X388500Y312250D03*
D18*
X409500Y312250D03*
X409500Y337750D03*
D19*
X422500Y306000D03*
X422500Y318500D03*
X422500Y331500D03*
X422500Y344000D03*
D16*
X423250Y219050D03*
X423250Y206350D03*
X423250Y193650D03*
X423250Y180950D03*
D17*
X401500Y187250D03*
X401500Y212750D03*
D18*
X380500Y212750D03*
X380500Y187250D03*
D19*
X367500Y219000D03*
X367500Y206500D03*
X367500Y193500D03*
X367500Y181000D03*
D16*
X366750Y115950D03*
X366750Y128650D03*
X366750Y141350D03*
X366750Y154050D03*
D17*
X388500Y147750D03*
X388500Y122250D03*
D18*
X409500Y122250D03*
X409500Y147750D03*
D19*
X422500Y116000D03*
X422500Y128500D03*
X422500Y141500D03*
X422500Y154000D03*
D20*
X646000Y233000D03*
X674000Y233000D03*
D21*
X661000Y292000D03*
X661000Y320000D03*
D20*
X646000Y265000D03*
X674000Y265000D03*
D21*
X629000Y292000D03*
X629000Y320000D03*
X340000Y274000D03*
X340000Y246000D03*
X305000Y274000D03*
X305000Y246000D03*
X340000Y296000D03*
X340000Y324000D03*
X305000Y296000D03*
X305000Y324000D03*
X340000Y159000D03*
X340000Y131000D03*
X305000Y159000D03*
X305000Y131000D03*
X305000Y186000D03*
X305000Y214000D03*
X340000Y186000D03*
X340000Y214000D03*
D22*
X637500Y162000D03*
X724500Y162000D03*
X261500Y395000D03*
X348500Y395000D03*
X256500Y60000D03*
X343500Y60000D03*
D23*
X590000Y298000D03*
X590000Y242000D03*
X590000Y157000D03*
X590000Y213000D03*
D24*
X450500Y295000D03*
X549500Y295000D03*
X450500Y160000D03*
X549500Y160000D03*
D21*
X213000Y339500D03*
X213000Y311500D03*
D25*
X191000Y324000D03*
X191000Y334000D03*
X191000Y302000D03*
X191000Y312000D03*
X161000Y304000D03*
X171000Y304000D03*
D21*
X111500Y360000D03*
X111500Y332000D03*
D14*
X167625Y285125D02*
X167625Y282875D01*
X167625Y285125D02*
X175375Y285125D01*
X175375Y282875D01*
X167625Y282875D01*
X167625Y283587D02*
X175375Y283587D01*
X175375Y284299D02*
X167625Y284299D01*
X167625Y285011D02*
X175375Y285011D01*
X167625Y280125D02*
X167625Y277875D01*
X167625Y280125D02*
X175375Y280125D01*
X175375Y277875D01*
X167625Y277875D01*
X167625Y278587D02*
X175375Y278587D01*
X175375Y279299D02*
X167625Y279299D01*
X167625Y280011D02*
X175375Y280011D01*
X167625Y275125D02*
X167625Y272875D01*
X167625Y275125D02*
X175375Y275125D01*
X175375Y272875D01*
X167625Y272875D01*
X167625Y273587D02*
X175375Y273587D01*
X175375Y274299D02*
X167625Y274299D01*
X167625Y275011D02*
X175375Y275011D01*
X167625Y270125D02*
X167625Y267875D01*
X167625Y270125D02*
X175375Y270125D01*
X175375Y267875D01*
X167625Y267875D01*
X167625Y268587D02*
X175375Y268587D01*
X175375Y269299D02*
X167625Y269299D01*
X167625Y270011D02*
X175375Y270011D01*
X167625Y265125D02*
X167625Y262875D01*
X167625Y265125D02*
X175375Y265125D01*
X175375Y262875D01*
X167625Y262875D01*
X167625Y263587D02*
X175375Y263587D01*
X175375Y264299D02*
X167625Y264299D01*
X167625Y265011D02*
X175375Y265011D01*
X136625Y265125D02*
X136625Y262875D01*
X136625Y265125D02*
X144375Y265125D01*
X144375Y262875D01*
X136625Y262875D01*
X136625Y263587D02*
X144375Y263587D01*
X144375Y264299D02*
X136625Y264299D01*
X136625Y265011D02*
X144375Y265011D01*
X136625Y267875D02*
X136625Y270125D01*
X144375Y270125D01*
X144375Y267875D01*
X136625Y267875D01*
X136625Y268587D02*
X144375Y268587D01*
X144375Y269299D02*
X136625Y269299D01*
X136625Y270011D02*
X144375Y270011D01*
X136625Y272875D02*
X136625Y275125D01*
X144375Y275125D01*
X144375Y272875D01*
X136625Y272875D01*
X136625Y273587D02*
X144375Y273587D01*
X144375Y274299D02*
X136625Y274299D01*
X136625Y275011D02*
X144375Y275011D01*
X136625Y277875D02*
X136625Y280125D01*
X144375Y280125D01*
X144375Y277875D01*
X136625Y277875D01*
X136625Y278587D02*
X144375Y278587D01*
X144375Y279299D02*
X136625Y279299D01*
X136625Y280011D02*
X144375Y280011D01*
X136625Y282875D02*
X136625Y285125D01*
X144375Y285125D01*
X144375Y282875D01*
X136625Y282875D01*
X136625Y283587D02*
X144375Y283587D01*
X144375Y284299D02*
X136625Y284299D01*
X136625Y285011D02*
X144375Y285011D01*
D15*
X156000Y280350D03*
X156000Y267650D03*
D21*
X213000Y284500D03*
X213000Y256500D03*
D25*
X191000Y274000D03*
X191000Y284000D03*
X191000Y252000D03*
X191000Y262000D03*
X161000Y249000D03*
X171000Y249000D03*
D21*
X112000Y285000D03*
X112000Y257000D03*
D14*
X167625Y230125D02*
X167625Y227875D01*
X167625Y230125D02*
X175375Y230125D01*
X175375Y227875D01*
X167625Y227875D01*
X167625Y228587D02*
X175375Y228587D01*
X175375Y229299D02*
X167625Y229299D01*
X167625Y230011D02*
X175375Y230011D01*
X167625Y225125D02*
X167625Y222875D01*
X167625Y225125D02*
X175375Y225125D01*
X175375Y222875D01*
X167625Y222875D01*
X167625Y223587D02*
X175375Y223587D01*
X175375Y224299D02*
X167625Y224299D01*
X167625Y225011D02*
X175375Y225011D01*
X167625Y220125D02*
X167625Y217875D01*
X167625Y220125D02*
X175375Y220125D01*
X175375Y217875D01*
X167625Y217875D01*
X167625Y218587D02*
X175375Y218587D01*
X175375Y219299D02*
X167625Y219299D01*
X167625Y220011D02*
X175375Y220011D01*
X167625Y215125D02*
X167625Y212875D01*
X167625Y215125D02*
X175375Y215125D01*
X175375Y212875D01*
X167625Y212875D01*
X167625Y213587D02*
X175375Y213587D01*
X175375Y214299D02*
X167625Y214299D01*
X167625Y215011D02*
X175375Y215011D01*
X167625Y210125D02*
X167625Y207875D01*
X167625Y210125D02*
X175375Y210125D01*
X175375Y207875D01*
X167625Y207875D01*
X167625Y208587D02*
X175375Y208587D01*
X175375Y209299D02*
X167625Y209299D01*
X167625Y210011D02*
X175375Y210011D01*
X136625Y210125D02*
X136625Y207875D01*
X136625Y210125D02*
X144375Y210125D01*
X144375Y207875D01*
X136625Y207875D01*
X136625Y208587D02*
X144375Y208587D01*
X144375Y209299D02*
X136625Y209299D01*
X136625Y210011D02*
X144375Y210011D01*
X136625Y212875D02*
X136625Y215125D01*
X144375Y215125D01*
X144375Y212875D01*
X136625Y212875D01*
X136625Y213587D02*
X144375Y213587D01*
X144375Y214299D02*
X136625Y214299D01*
X136625Y215011D02*
X144375Y215011D01*
X136625Y217875D02*
X136625Y220125D01*
X144375Y220125D01*
X144375Y217875D01*
X136625Y217875D01*
X136625Y218587D02*
X144375Y218587D01*
X144375Y219299D02*
X136625Y219299D01*
X136625Y220011D02*
X144375Y220011D01*
X136625Y222875D02*
X136625Y225125D01*
X144375Y225125D01*
X144375Y222875D01*
X136625Y222875D01*
X136625Y223587D02*
X144375Y223587D01*
X144375Y224299D02*
X136625Y224299D01*
X136625Y225011D02*
X144375Y225011D01*
X136625Y227875D02*
X136625Y230125D01*
X144375Y230125D01*
X144375Y227875D01*
X136625Y227875D01*
X136625Y228587D02*
X144375Y228587D01*
X144375Y229299D02*
X136625Y229299D01*
X136625Y230011D02*
X144375Y230011D01*
D15*
X156000Y225350D03*
X156000Y212650D03*
D21*
X213000Y228000D03*
X213000Y200000D03*
D25*
X191000Y219000D03*
X191000Y229000D03*
X191000Y197000D03*
X191000Y207000D03*
X161000Y194000D03*
X171000Y194000D03*
D21*
X112000Y208500D03*
X112000Y180500D03*
D26*
X171250Y499500D03*
X171250Y506000D03*
X171250Y512500D03*
X190750Y512500D03*
X190750Y506000D03*
X190750Y499500D03*
D27*
X181000Y501750D03*
X181000Y510250D03*
D25*
X179000Y526000D03*
X189000Y526000D03*
X204000Y511000D03*
X204000Y501000D03*
D28*
X196500Y486000D03*
X185500Y486000D03*
X162500Y486000D03*
X173500Y486000D03*
D25*
X135000Y502000D03*
X135000Y492000D03*
X121000Y514000D03*
X121000Y504000D03*
D29*
X109000Y503500D03*
X109000Y514500D03*
D30*
X135500Y513500D03*
X135500Y520000D03*
X135500Y526500D03*
X152500Y526500D03*
X152500Y513500D03*
D28*
X158500Y501000D03*
X147500Y501000D03*
D25*
X121000Y526000D03*
X111000Y526000D03*
D30*
X122500Y490500D03*
X122500Y484000D03*
X122500Y477500D03*
X105500Y477500D03*
X105500Y490500D03*
D25*
X152000Y466000D03*
X152000Y476000D03*
X140000Y466000D03*
X140000Y476000D03*
X106000Y466000D03*
X96000Y466000D03*
X128000Y466000D03*
X118000Y466000D03*
D28*
X138500Y194000D03*
X149500Y194000D03*
X118500Y240000D03*
X107500Y240000D03*
X120500Y315000D03*
X109500Y315000D03*
D31*
X200500Y457500D03*
X194000Y457500D03*
X187500Y457500D03*
X187500Y474500D03*
X200500Y474500D03*
X176500Y457500D03*
X170000Y457500D03*
X163500Y457500D03*
X163500Y474500D03*
X176500Y474500D03*
M02*
