G04 EAGLE Gerber RS-274X export*
G75*
%MOMM*%
%FSLAX34Y34*%
%LPD*%
%INSolderpaste Top*%
%IPPOS*%
%AMOC8*
5,1,8,0,0,1.08239X$1,22.5*%
G01*
%ADD10R,1.300000X0.750000*%
%ADD11R,1.700000X1.950000*%
%ADD12R,1.300000X1.950000*%
%ADD13R,1.300000X0.700000*%
%ADD14R,0.900000X2.500000*%
%ADD15R,5.600000X2.500000*%
%ADD16R,1.700000X1.800000*%
%ADD17R,0.600000X0.900000*%
%ADD18R,1.600000X0.500000*%
%ADD19R,0.700000X0.600000*%
%ADD20R,0.450000X0.250000*%
%ADD21R,0.250000X0.450000*%
%ADD22R,0.250000X0.625000*%
%ADD23R,0.375000X0.825000*%
%ADD24R,0.350000X0.250000*%
%ADD25R,2.100000X2.800000*%
%ADD26R,0.900000X1.300000*%
%ADD27R,0.600000X0.700000*%
%ADD28R,0.700000X0.700000*%
%ADD29R,1.600000X2.700000*%
%ADD30R,0.250000X0.600000*%
%ADD31C,0.894425*%
%ADD32R,0.600000X0.250000*%
%ADD33R,1.000000X0.800000*%
%ADD34R,0.800000X1.000000*%
%ADD35R,0.600000X0.800000*%
%ADD36R,0.800000X0.600000*%
%ADD37R,0.800000X0.800000*%
%ADD38C,0.320000*%
%ADD39C,0.420000*%
%ADD40R,0.746000X0.746000*%


D10*
X621750Y324050D03*
X621750Y311350D03*
X621750Y298650D03*
X621750Y285950D03*
D11*
X643500Y292250D03*
X643500Y317750D03*
D12*
X664500Y317750D03*
X664500Y292250D03*
D13*
X677500Y324000D03*
X677500Y311500D03*
X677500Y298500D03*
X677500Y286000D03*
D14*
X628500Y404500D03*
X628500Y355500D03*
D15*
X670000Y404500D03*
X670000Y355500D03*
D10*
X523250Y285950D03*
X523250Y298650D03*
X523250Y311350D03*
X523250Y324050D03*
D11*
X501500Y317750D03*
X501500Y292250D03*
D12*
X480500Y292250D03*
X480500Y317750D03*
D13*
X467500Y286000D03*
X467500Y298500D03*
X467500Y311500D03*
X467500Y324000D03*
D14*
X441500Y404500D03*
X441500Y355500D03*
D15*
X483000Y404500D03*
X483000Y355500D03*
D16*
X639500Y212000D03*
X639500Y242000D03*
D17*
X663000Y199000D03*
X663000Y255000D03*
D18*
X688000Y227000D03*
X688000Y211000D03*
X688000Y243000D03*
D19*
X706000Y213500D03*
X706000Y224500D03*
D20*
X596000Y87500D03*
X596000Y82500D03*
X596000Y77500D03*
X596000Y72500D03*
D21*
X600750Y94000D03*
X600750Y66000D03*
X618750Y66000D03*
D22*
X613750Y75625D03*
X613750Y67625D03*
D23*
X607875Y80625D03*
X607875Y92125D03*
X619375Y92125D03*
X619375Y80625D03*
D24*
X624500Y87500D03*
X624500Y82500D03*
X624500Y77500D03*
D25*
X596500Y-3000D03*
X596500Y39000D03*
X545500Y-3000D03*
X545500Y39000D03*
D19*
X623000Y43500D03*
X623000Y54500D03*
D26*
X620500Y121000D03*
X601500Y121000D03*
D27*
X619500Y106000D03*
X608500Y106000D03*
D26*
X620500Y139000D03*
X601500Y139000D03*
D28*
X643000Y140000D03*
X643000Y130000D03*
X643000Y113000D03*
X643000Y103000D03*
X584000Y126000D03*
X584000Y116000D03*
X572000Y126000D03*
X572000Y116000D03*
X582000Y92000D03*
X572000Y92000D03*
X572000Y80000D03*
X582000Y80000D03*
D27*
X571500Y104000D03*
X582500Y104000D03*
D29*
X527000Y78000D03*
X555000Y78000D03*
X527000Y110000D03*
X555000Y110000D03*
X527000Y142000D03*
X555000Y142000D03*
D27*
X582500Y68000D03*
X571500Y68000D03*
D30*
X325500Y260000D03*
D31*
X314000Y241000D03*
X320000Y233000D03*
X320000Y249000D03*
X296000Y249000D03*
X296000Y233000D03*
X308000Y233000D03*
X302000Y241000D03*
X308000Y249000D03*
D30*
X320500Y260000D03*
X315500Y260000D03*
X310500Y260000D03*
X305500Y260000D03*
X300500Y260000D03*
X295500Y260000D03*
X290500Y260000D03*
D32*
X284000Y253500D03*
X284000Y248500D03*
X284000Y243500D03*
X284000Y238500D03*
X284000Y233500D03*
X284000Y228500D03*
D30*
X290500Y222000D03*
X295500Y222000D03*
X300500Y222000D03*
X305500Y222000D03*
X310500Y222000D03*
X315500Y222000D03*
X320500Y222000D03*
X325500Y222000D03*
D32*
X332000Y228500D03*
X332000Y233500D03*
X332000Y238500D03*
X332000Y243500D03*
X332000Y248500D03*
X332000Y253500D03*
D33*
X262000Y231500D03*
X262000Y216500D03*
D34*
X362500Y220000D03*
X347500Y220000D03*
D35*
X243000Y224000D03*
X243000Y200000D03*
D36*
X348000Y204000D03*
X372000Y204000D03*
D28*
X360000Y303000D03*
X360000Y293000D03*
X372000Y293000D03*
X372000Y303000D03*
X336000Y303000D03*
X336000Y293000D03*
X348000Y293000D03*
X348000Y303000D03*
X312000Y309000D03*
X312000Y299000D03*
X324000Y293000D03*
X324000Y303000D03*
X300000Y309000D03*
X300000Y299000D03*
X283000Y307000D03*
X273000Y307000D03*
D27*
X295500Y279000D03*
X306500Y279000D03*
D34*
X291500Y205000D03*
X276500Y205000D03*
D19*
X326000Y207500D03*
X326000Y196500D03*
D28*
X370000Y237000D03*
X370000Y247000D03*
X358000Y247000D03*
X358000Y237000D03*
X241000Y263000D03*
X241000Y253000D03*
D27*
X303500Y206000D03*
X314500Y206000D03*
D28*
X239000Y238000D03*
X249000Y238000D03*
D27*
X227500Y238000D03*
X216500Y238000D03*
X227500Y226000D03*
X216500Y226000D03*
D19*
X265000Y263500D03*
X265000Y252500D03*
D28*
X217000Y263000D03*
X217000Y253000D03*
X229000Y253000D03*
X229000Y263000D03*
X253000Y253000D03*
X253000Y263000D03*
X358000Y271000D03*
X368000Y271000D03*
X358000Y259000D03*
X368000Y259000D03*
X287000Y296000D03*
X287000Y286000D03*
X275000Y296000D03*
X275000Y286000D03*
D19*
X345000Y271500D03*
X345000Y260500D03*
D27*
X287500Y274000D03*
X276500Y274000D03*
D28*
X213000Y445000D03*
X203000Y445000D03*
X237000Y417000D03*
X237000Y407000D03*
D37*
X156000Y414500D03*
X156000Y429500D03*
D28*
X182000Y10000D03*
X172000Y10000D03*
X205000Y33000D03*
X205000Y43000D03*
D37*
X156000Y110500D03*
X156000Y125500D03*
D28*
X205000Y55000D03*
X205000Y65000D03*
X182000Y-2000D03*
X172000Y-2000D03*
D37*
X156000Y33500D03*
X156000Y48500D03*
D38*
X211250Y17000D03*
X211250Y12000D03*
X211250Y7000D03*
X200750Y7000D03*
X200750Y12000D03*
X200750Y17000D03*
D39*
X206000Y15500D03*
X206000Y8500D03*
D28*
X225000Y417000D03*
X225000Y407000D03*
X213000Y432000D03*
X203000Y432000D03*
D37*
X156000Y338500D03*
X156000Y353500D03*
D28*
X237000Y339000D03*
X227000Y339000D03*
X237000Y381000D03*
X237000Y391000D03*
D37*
X156000Y262500D03*
X156000Y277500D03*
D28*
X249000Y381000D03*
X249000Y391000D03*
X249000Y339000D03*
X249000Y329000D03*
D37*
X156000Y185500D03*
X156000Y200500D03*
D38*
X235000Y366250D03*
X240000Y366250D03*
X245000Y366250D03*
X245000Y355750D03*
X240000Y355750D03*
X235000Y355750D03*
D39*
X236500Y361000D03*
X243500Y361000D03*
D38*
X223000Y439250D03*
X228000Y439250D03*
X233000Y439250D03*
X233000Y428750D03*
X228000Y428750D03*
X223000Y428750D03*
D39*
X224500Y434000D03*
X231500Y434000D03*
D28*
X700000Y130000D03*
X690000Y130000D03*
D37*
X674500Y130000D03*
X659500Y130000D03*
D20*
X451000Y87500D03*
X451000Y82500D03*
X451000Y77500D03*
X451000Y72500D03*
D21*
X455750Y94000D03*
X455750Y66000D03*
X473750Y66000D03*
D22*
X468750Y75625D03*
X468750Y67625D03*
D23*
X462875Y80625D03*
X462875Y92125D03*
X474375Y92125D03*
X474375Y80625D03*
D24*
X479500Y87500D03*
X479500Y82500D03*
X479500Y77500D03*
D25*
X451500Y-3000D03*
X451500Y39000D03*
X400500Y-3000D03*
X400500Y39000D03*
D19*
X478000Y43500D03*
X478000Y54500D03*
D26*
X475500Y121000D03*
X456500Y121000D03*
D27*
X474500Y106000D03*
X463500Y106000D03*
D26*
X475500Y139000D03*
X456500Y139000D03*
D28*
X503000Y140000D03*
X503000Y130000D03*
X503000Y113000D03*
X503000Y103000D03*
X439000Y126000D03*
X439000Y116000D03*
X427000Y126000D03*
X427000Y116000D03*
X437000Y92000D03*
X427000Y92000D03*
X427000Y80000D03*
X437000Y80000D03*
D27*
X426500Y104000D03*
X437500Y104000D03*
D29*
X382000Y78000D03*
X410000Y78000D03*
X382000Y110000D03*
X410000Y110000D03*
X382000Y142000D03*
X410000Y142000D03*
D27*
X437500Y68000D03*
X426500Y68000D03*
D20*
X306000Y87500D03*
X306000Y82500D03*
X306000Y77500D03*
X306000Y72500D03*
D21*
X310750Y94000D03*
X310750Y66000D03*
X328750Y66000D03*
D22*
X323750Y75625D03*
X323750Y67625D03*
D23*
X317875Y80625D03*
X317875Y92125D03*
X329375Y92125D03*
X329375Y80625D03*
D24*
X334500Y87500D03*
X334500Y82500D03*
X334500Y77500D03*
D25*
X306500Y-3000D03*
X306500Y39000D03*
X255500Y-3000D03*
X255500Y39000D03*
D19*
X333000Y43500D03*
X333000Y54500D03*
D26*
X330500Y121000D03*
X311500Y121000D03*
D27*
X329500Y106000D03*
X318500Y106000D03*
D26*
X330500Y139000D03*
X311500Y139000D03*
D28*
X351000Y85000D03*
X361000Y85000D03*
X361000Y102000D03*
X351000Y102000D03*
X294000Y126000D03*
X294000Y116000D03*
X282000Y126000D03*
X282000Y116000D03*
X282000Y80000D03*
X292000Y80000D03*
D27*
X281500Y104000D03*
X292500Y104000D03*
D29*
X237000Y78000D03*
X265000Y78000D03*
X237000Y110000D03*
X265000Y110000D03*
X237000Y142000D03*
X265000Y142000D03*
D27*
X292500Y68000D03*
X281500Y68000D03*
D28*
X292000Y92000D03*
X282000Y92000D03*
D40*
X575000Y386000D03*
X575000Y374000D03*
X563000Y386000D03*
X563000Y374000D03*
D30*
X581500Y399000D03*
X576500Y399000D03*
X571500Y399000D03*
X566500Y399000D03*
X561500Y399000D03*
X556500Y399000D03*
D32*
X550000Y392500D03*
X550000Y387500D03*
X550000Y382500D03*
X550000Y377500D03*
X550000Y372500D03*
X550000Y367500D03*
D30*
X556500Y361000D03*
X561500Y361000D03*
X566500Y361000D03*
X571500Y361000D03*
X576500Y361000D03*
X581500Y361000D03*
D32*
X588000Y392500D03*
X588000Y387500D03*
X588000Y382500D03*
X588000Y377500D03*
X588000Y372500D03*
X588000Y367500D03*
D27*
X605500Y427000D03*
X594500Y427000D03*
X612500Y389000D03*
X601500Y389000D03*
D19*
X602000Y400500D03*
X602000Y411500D03*
D27*
X601500Y363000D03*
X612500Y363000D03*
X582500Y347000D03*
X593500Y347000D03*
D28*
X548000Y347000D03*
X558000Y347000D03*
D27*
X525500Y347000D03*
X536500Y347000D03*
D28*
X566000Y413000D03*
X566000Y423000D03*
X555000Y413000D03*
X555000Y423000D03*
X526000Y401000D03*
X536000Y401000D03*
X602000Y375000D03*
X612000Y375000D03*
X614000Y411000D03*
X614000Y401000D03*
X526000Y374000D03*
X536000Y374000D03*
X578000Y423000D03*
X578000Y413000D03*
X543000Y423000D03*
X543000Y413000D03*
D27*
X536500Y389000D03*
X525500Y389000D03*
D28*
X526000Y359000D03*
X536000Y359000D03*
D40*
X390000Y386000D03*
X390000Y374000D03*
X378000Y386000D03*
X378000Y374000D03*
D30*
X396500Y399000D03*
X391500Y399000D03*
X386500Y399000D03*
X381500Y399000D03*
X376500Y399000D03*
X371500Y399000D03*
D32*
X365000Y392500D03*
X365000Y387500D03*
X365000Y382500D03*
X365000Y377500D03*
X365000Y372500D03*
X365000Y367500D03*
D30*
X371500Y361000D03*
X376500Y361000D03*
X381500Y361000D03*
X386500Y361000D03*
X391500Y361000D03*
X396500Y361000D03*
D32*
X403000Y392500D03*
X403000Y387500D03*
X403000Y382500D03*
X403000Y377500D03*
X403000Y372500D03*
X403000Y367500D03*
D27*
X420500Y424000D03*
X409500Y424000D03*
X425500Y388000D03*
X414500Y388000D03*
D19*
X415000Y399500D03*
X415000Y410500D03*
D27*
X414500Y362000D03*
X425500Y362000D03*
X397500Y347000D03*
X408500Y347000D03*
D28*
X363000Y347000D03*
X373000Y347000D03*
D27*
X339500Y350000D03*
X350500Y350000D03*
D28*
X386000Y414000D03*
X386000Y424000D03*
X374000Y414000D03*
X374000Y424000D03*
X340000Y402000D03*
X350000Y402000D03*
X415000Y374000D03*
X425000Y374000D03*
X427000Y410000D03*
X427000Y400000D03*
X340000Y374000D03*
X350000Y374000D03*
X398000Y424000D03*
X398000Y414000D03*
X362000Y424000D03*
X362000Y414000D03*
D27*
X350500Y390000D03*
X339500Y390000D03*
D28*
X340000Y362000D03*
X350000Y362000D03*
M02*
